<svg width="30" height="30" viewBox="0 0 30 30" fill="none" xmlns="http://www.w3.org/2000/svg">
<path d="M21.4036 4.46155H1V29H6.67889V21.0168H17.5607L22.5257 29H28.8846L23.4098 20.9801C25.1102 20.6858 26.3343 19.9867 27.0825 18.8831C27.8305 17.7795 28.2046 16.0135 28.2046 13.659V11.8195C28.2046 10.4215 28.0688 9.31787 27.8306 8.47173C27.5925 7.62559 27.1844 6.88971 26.6064 6.22754C25.9942 5.60212 25.3142 5.16068 24.498 4.86645C23.6818 4.60898 22.6616 4.46155 21.4036 4.46155ZM20.4854 15.609H6.67889V9.86957H20.4854C21.2674 9.86957 21.8115 10.0166 22.0835 10.2743C22.3556 10.5317 22.5257 11.0099 22.5257 11.7091V13.7693C22.5257 14.505 22.3556 14.9832 22.0835 15.2406C21.8115 15.4981 21.2675 15.609 20.4854 15.609Z" stroke="white" stroke-width="2" stroke-linecap="round" stroke-linejoin="round"/>
<path d="M28.3276 1C28.6986 1.00023 28.9994 1.30127 28.9995 1.67285C28.9995 2.04453 28.6986 2.34548 28.3276 2.3457C27.9555 2.3457 27.6538 2.04441 27.6538 1.67285C27.6539 1.30139 27.9556 1 28.3276 1Z" stroke="white" stroke-width="2"/>
</svg>
