<svg width="29" height="29" viewBox="0 0 29 29" fill="none" xmlns="http://www.w3.org/2000/svg">
<path d="M14.5002 0.23999C22.3761 0.23999 28.7602 6.62413 28.7602 14.5C28.7602 22.3758 22.3761 28.76 14.5002 28.76C6.62437 28.76 0.240234 22.3758 0.240234 14.5C0.240234 6.62413 6.62437 0.23999 14.5002 0.23999ZM19.4193 20.3125C19.6816 19.5077 20.9104 11.4874 21.0623 9.90703C21.1082 9.42839 20.9569 9.11033 20.6606 8.96835C20.3022 8.79599 19.7715 8.88217 19.1558 9.10413C18.3114 9.40855 7.51593 13.9922 6.89221 14.2576C6.30073 14.5087 5.74149 14.7827 5.74149 15.1795C5.74149 15.4585 5.90703 15.6154 6.36335 15.7784C6.83827 15.9477 8.03425 16.3104 8.74043 16.5051C9.42057 16.6929 10.195 16.5299 10.629 16.2602C11.089 15.9743 16.3981 12.4217 16.7794 12.1105C17.16 11.7993 17.4638 12.1979 17.1526 12.5098C16.8414 12.821 13.197 16.3581 12.7165 16.8479C12.1331 17.4425 12.5472 18.0588 12.9385 18.3055C13.3855 18.587 16.6002 20.7434 17.0844 21.0893C17.5686 21.4353 18.0597 21.5922 18.5092 21.5922C18.9587 21.5922 19.1955 21.0001 19.4193 20.3125Z" fill="black"/>
</svg>
