<svg width="29" height="29" viewBox="0 0 29 29" fill="none" xmlns="http://www.w3.org/2000/svg">
<path d="M14.5002 0.240234C22.3761 0.240234 28.7602 6.62437 28.7602 14.5002C28.7602 22.3761 22.3761 28.7602 14.5002 28.7602C6.62437 28.7602 0.240234 22.3761 0.240234 14.5002C0.240234 6.62437 6.62437 0.240234 14.5002 0.240234ZM19.4193 20.3127C19.6816 19.508 20.9104 11.4877 21.0623 9.90727C21.1082 9.42863 20.9569 9.11057 20.6606 8.96859C20.3022 8.79623 19.7715 8.88241 19.1558 9.10437C18.3114 9.40879 7.51593 13.9925 6.89221 14.2578C6.30073 14.5089 5.74149 14.783 5.74149 15.1798C5.74149 15.4588 5.90703 15.6156 6.36335 15.7787C6.83827 15.9479 8.03425 16.3106 8.74043 16.5053C9.42057 16.6932 10.195 16.5301 10.629 16.2604C11.089 15.9746 16.3981 12.422 16.7794 12.1108C17.16 11.7995 17.4638 12.1982 17.1526 12.51C16.8414 12.8213 13.197 16.3584 12.7165 16.8482C12.1331 17.4428 12.5472 18.059 12.9385 18.3058C13.3855 18.5873 16.6002 20.7436 17.0844 21.0896C17.5686 21.4356 18.0597 21.5924 18.5092 21.5924C18.9587 21.5924 19.1955 21.0003 19.4193 20.3127Z" fill="#1C4478"/>
</svg>
