<svg width="27" height="27" viewBox="0 0 27 27" fill="none" xmlns="http://www.w3.org/2000/svg">
<path d="M23.42 0.47998H3.57998C1.86878 0.47998 0.47998 1.86878 0.47998 3.57998V23.42C0.47998 25.1312 1.86878 26.52 3.57998 26.52H23.42C25.1312 26.52 26.52 25.1312 26.52 23.42V3.57998C26.52 1.86878 25.1312 0.47998 23.42 0.47998ZM21.3864 18.46L19.0738 18.4538C19.0738 18.4538 19.0242 18.46 18.9436 18.46C18.7576 18.46 18.3732 18.4104 17.9206 18.1004C17.1084 17.5362 16.3334 16.135 15.7196 16.135C15.6762 16.135 15.639 16.1412 15.6018 16.1536C15.0686 16.321 14.9074 16.8542 14.9074 17.5052C14.9074 17.7346 14.7462 17.84 14.3122 17.84H13.1156C11.7764 17.84 10.4806 17.809 9.02358 16.2156C6.87838 13.8658 4.86958 9.68698 4.86958 9.68698C4.86958 9.68698 4.75798 9.44518 4.87578 9.30258C4.98738 9.17238 5.24778 9.15998 5.34698 9.15998C5.37178 9.15998 5.38418 9.15998 5.38418 9.15998H7.86418C7.86418 9.15998 8.09358 9.20338 8.26098 9.32738C8.40358 9.43278 8.47798 9.62498 8.47798 9.62498C8.47798 9.62498 8.89958 10.4434 9.42658 11.3672C10.3132 12.8924 10.7906 13.4008 11.1316 13.4008C11.1874 13.4008 11.2432 13.3884 11.299 13.3574C11.8074 13.0784 11.6586 10.8216 11.6586 10.8216C11.6586 10.8216 11.6648 10.0032 11.3982 9.64358C11.1936 9.35838 10.803 9.27778 10.6294 9.25298C10.493 9.23438 10.7162 8.91198 11.0138 8.76318C11.3982 8.57718 12.0368 8.53998 12.8056 8.53998H13.1776C13.903 8.55238 13.9216 8.62678 14.2068 8.69498C15.0624 8.89958 14.771 9.69938 14.771 11.6152C14.771 12.229 14.6594 13.0908 15.0996 13.3822C15.1306 13.4008 15.174 13.4132 15.2298 13.4132C15.515 13.4132 16.1288 13.0474 17.1084 11.392C17.654 10.4496 18.0756 9.51338 18.0756 9.51338C18.0756 9.51338 18.1686 9.34598 18.3112 9.25918C18.4476 9.17858 18.4476 9.17858 18.6274 9.17858H18.646C18.8444 9.17858 20.816 9.15998 21.25 9.15998H21.2996C21.715 9.15998 22.0932 9.16618 22.1614 9.42038C22.2606 9.80478 21.8576 10.493 20.7974 11.919C19.049 14.2564 18.8506 14.0828 20.3014 15.4344C21.6902 16.724 21.9754 17.3502 22.025 17.4308C22.6016 18.3856 21.3864 18.46 21.3864 18.46Z" fill="white"/>
</svg>
